<svg width="1170" height="1023" viewBox="0 0 1170 1023" fill="none" xmlns="http://www.w3.org/2000/svg">
<path d="M1524.5 377.506V-260.5C1316 -260.5 1215.08 -260.5 1136.5 -260.5C1136.5 -221.5 1136.5 -215.5 1136.5 -260.5V-12.3749C1136.5 70.9413 1136.5 94 1114 185.5C1099.82 225.909 1062.96 311.78 1042.01 349.127C1014.08 398.902 963.725 473.121 923.71 513.82C886.051 552.123 839.623 583.204 793.658 611C744.229 640.892 667 689.5 512.253 722.905C476.462 733.622 434.948 738.904 397.999 744.438C359.382 750.222 39.548 744.438 0.49938 744.438C0.499437 783 0.499437 815.77 0.499437 889.5C0.499437 963.23 0.499496 988.5 0.499146 1023H1524.5C1524.5 618.982 1524.5 707.436 1524.5 377.506Z" fill="#F5F5F5"/>
<path d="M1524.5 377.506V-260.5C1347.5 -260.5 1215.2 -260.5 1136.5 -260.5C1136.5 -221.5 1136.5 -215.5 1136.5 -260.5C1229.01 -260.5 1302.85 -185.536 1297.46 -93.1849C1290.09 32.96 1276.81 185.424 1259.31 235.272C1245.13 275.681 1227.46 314.78 1206.51 352.127C1178.58 401.902 1149.5 452.794 1089.5 513.82C1052.7 551.254 1029.57 573.477 982.328 608.538C980.121 610.176 977.937 611.772 975.695 613.362C959.037 625.169 882.924 678.011 828 697.5C677.5 750.903 485.999 739.5 397.999 744.438H0.49938C0.499437 783 0.499437 833.995 0.499437 889.5C0.499437 945.004 0.499239 973 0.499146 1023H1524.5C1524.5 673 1524.5 710.258 1524.5 377.506Z" fill="#FAFAFA"/>
</svg>
